<?xml version="1.0" encoding="utf-8"?>
<!-- Generator: Adobe Illustrator 18.1.0, SVG Export Plug-In . SVG Version: 6.00 Build 0)  -->
<svg version="1.1" id="Layer_1" xmlns="http://www.w3.org/2000/svg" xmlns:xlink="http://www.w3.org/1999/xlink" x="0px" y="0px"
	 viewBox="0 0 40 40" enable-background="new 0 0 40 40" xml:space="preserve">
<path d="M10.8,4.2h18c2,0,3.6,1.6,3.6,3.5v24.6c0,1.9-1.6,3.5-3.6,3.5h-18c-1.9,0-3.4-1.5-3.6-3.3H4.8c-0.9,0-1.6-0.7-1.6-1.6l0,0
	c0-0.9,0.7-1.6,1.6-1.6h2.5v-2.2H4.8c-0.9,0-1.6-0.7-1.6-1.6l0,0c0-0.9,0.7-1.6,1.6-1.6h2.5V22H4.8c-0.9,0-1.6-0.7-1.6-1.6l0,0
	c0-0.9,0.7-1.6,1.6-1.6h2.5v-2.2H4.8c-0.9,0-1.6-0.7-1.6-1.6l0,0c0-0.9,0.7-1.6,1.6-1.6h2.5v-2.2H4.8c-0.9,0-1.6-0.7-1.6-1.6l0,0
	C3.2,8.7,3.9,8,4.8,8h2.5V7.7C7.3,5.7,8.9,4.2,10.8,4.2L10.8,4.2z M14.7,26.9h13.8c0,0,0-1,0-1.1c0-1.4-2.2-2.8-4.6-3.2
	c0,0-0.9-0.2-0.5-1.1c0.5-0.7,0.9-1.5,0.9-1.8c0,0,0.8-0.6,0.9-1.6s-0.2-1-0.2-1c0.3-1.1,0.5-5-2.1-4.6c-0.4-0.8-3.1-1.5-4.3,0.7
	c-0.6,1.1-0.8,2.6-0.4,3.9c0,0.1-0.2-0.1-0.2,0.5c-0.1,0.6,0.2,1.3,0.5,1.7c0.1,0.2,0.3,0.3,0.4,0.3c0,0,0.2,1,0.9,1.9
	c0.2,0.7-0.5,1.1-0.5,1.1c-2.4,0.5-4.6,1.8-4.6,3.2C14.7,25.9,14.7,26.9,14.7,26.9L14.7,26.9z M10,8.1c-0.3,0-0.6,0.1-0.9,0.2
	C9.6,8.6,10,9.2,10,9.9s-0.4,1.2-0.9,1.6c0.3,0.2,0.6,0.2,0.9,0.2c1,0,1.8-0.8,1.8-1.8S11,8.1,10,8.1L10,8.1z M10,13.4
	c-0.3,0-0.6,0.1-0.9,0.2c0.5,0.3,0.9,0.9,0.9,1.6s-0.4,1.2-0.9,1.6C9.3,16.9,9.7,17,10,17c1,0,1.8-0.8,1.8-1.8S11,13.4,10,13.4
	L10,13.4z M10,18.7c-0.3,0-0.6,0.1-0.9,0.2c0.5,0.3,0.9,0.9,0.9,1.6s-0.4,1.2-0.9,1.6c0.3,0.2,0.6,0.2,0.9,0.2c1,0,1.8-0.8,1.8-1.8
	S11,18.7,10,18.7L10,18.7z M10,24c-0.3,0-0.6,0.1-0.9,0.2c0.5,0.3,0.9,0.9,0.9,1.6S9.6,27,9.1,27.4c0.3,0.2,0.6,0.2,0.9,0.2
	c1,0,1.8-0.8,1.8-1.8S11,24,10,24L10,24z M10,29.3c-0.3,0-0.6,0.1-0.9,0.2c0.5,0.3,0.9,0.9,0.9,1.6s-0.4,1.2-0.9,1.6
	c0.3,0.2,0.6,0.2,0.9,0.2c1,0,1.8-0.8,1.8-1.8C11.8,30.1,11,29.3,10,29.3z"/>
</svg>
