<svg xmlns="http://www.w3.org/2000/svg" viewBox="0 0 25.9 18.2">
<g><path fill="#4F5253" d="M23.7,2.4h-3.1v4.4c0,2.4-2,4.4-4.4,4.4H9.6v0.5c0,1.3,1,2.3,2.3,2.3h7.3l4.8,4.1L23.1,14h0.6
		c1.3,0,2.3-1,2.3-2.3v-7C25.9,3.4,24.9,2.4,23.7,2.4z"/>
</g><path fill="#7C1618" d="M16.1,0H2.6C1.2,0,0,1.2,0,2.6v8c0,1.4,1.2,2.6,2.6,2.6h0.8l-1.2,4.9l5.7-4.9h8.3c1.4,0,2.6-1.2,2.6-2.6v-8
	C18.8,1.2,17.6,0,16.1,0z M5.7,7.9c-0.6,0-1.1-0.5-1.1-1.1c0-0.6,0.5-1.1,1.1-1.1c0.6,0,1.1,0.5,1.1,1.1C6.7,7.5,6.2,7.9,5.7,7.9z
	 M9.4,7.9c-0.6,0-1.1-0.5-1.1-1.1c0-0.6,0.5-1.1,1.1-1.1c0.6,0,1.1,0.5,1.1,1.1C10.4,7.5,10,7.9,9.4,7.9z M13.1,7.9
	c-0.6,0-1.1-0.5-1.1-1.1c0-0.6,0.5-1.1,1.1-1.1c0.6,0,1.1,0.5,1.1,1.1C14.1,7.5,13.7,7.9,13.1,7.9z"/></svg>
