<?xml version="1.0" encoding="utf-8"?>
<svg version="1.1" id="Layer_1" xmlns="http://www.w3.org/2000/svg" xmlns:xlink="http://www.w3.org/1999/xlink" x="0px" y="0px"
	 viewBox="0 0 40 40" enable-background="new 0 0 40 40" xml:space="preserve">
<path d="M5.5,7.2h29.1c2.1,0,3.8,1.7,3.8,3.8v18.4c0,2.1-1.7,3.8-3.8,3.8H26v-1.6h0.2c0.3,0,0.7-0.3,0.7-0.7v-2
	c0-0.3-0.3-0.7-0.7-0.7h-2c-0.3,0-0.7,0.3-0.7,0.7v2c0,0.3,0.3,0.7,0.7,0.7h0.2v1.6h-9v-1.6h0.2c0.3,0,0.7-0.3,0.7-0.7v-2
	c0-0.3-0.3-0.7-0.7-0.7h-2c-0.3,0-0.7,0.3-0.7,0.7v2c0,0.3,0.3,0.7,0.7,0.7h0.2v1.6H5.5c-2.1-0.1-3.8-1.8-3.8-3.9V10.9
	C1.7,9,3.4,7.2,5.5,7.2L5.5,7.2z M21.8,22.9v3h7.7v-3H21.8L21.8,22.9z M21.8,16.9v3h12.3v-3H21.8L21.8,16.9z M21.8,11v3h12.3v-3
	H21.8L21.8,11z M5.6,11v14.7h12.6V11H5.6L5.6,11z M6.9,23.8h9.7c0,0,0-0.7,0-0.8c0-1-1.5-2-3.2-2.3c0,0-0.7-0.1-0.3-0.8
	c0.3-0.5,0.6-1,0.6-1.3c0,0,0.6-0.5,0.6-1.1s-0.1-0.7-0.1-0.7c0.2-0.7,0.3-3.6-1.5-3.2c-0.3-0.6-2.2-1-3,0.5
	c-0.5,0.8-0.6,1.8-0.2,2.6c0,0.1-0.1-0.1-0.1,0.3c0,0.3,0.1,0.9,0.3,1.1c0.1,0.1,0.2,0.2,0.3,0.2c0,0,0.1,0.7,0.7,1.4
	c0.1,0.5-0.3,0.8-0.3,0.8c-1.6,0.3-3.2,1.3-3.2,2.3C6.9,23.1,6.9,23.8,6.9,23.8z"/>
</svg>
