<?xml version="1.0" encoding="utf-8"?>
<!-- Generator: Adobe Illustrator 18.1.0, SVG Export Plug-In . SVG Version: 6.00 Build 0)  -->
<svg version="1.1" id="Layer_1" xmlns="http://www.w3.org/2000/svg" xmlns:xlink="http://www.w3.org/1999/xlink" x="0px" y="0px"
	 viewBox="0 0 40 40" enable-background="new 0 0 40 40" xml:space="preserve">
<g>
	<line fill="none" stroke="#449FDB" x1="8.1" y1="2.6" x2="8.1" y2="2.6"/>
</g>
<path d="M33.5,29.5c-0.4-0.3-5.7-4.7-6.2-5.1c-0.5-0.4-1.1-0.4-1.5-0.1c-0.4,0.3-2.8,1.9-2.8,1.9c-1,0.7-1.8,0.9-2.7,0
	c-1.1-1.1-2.1-2.3-3-3.6s-1.7-2.7-2.2-4.1c-0.5-1.1,0-1.8,1-2.5c0,0,2.4-1.6,2.8-1.9c0.4-0.3,0.7-0.9,0.5-1.5
	C19.1,12,17,5.4,16.8,4.9c-0.2-0.5-0.6-1-1.2-1.1C13.7,3.7,12.2,4,10.8,5c-4.8,3.3-4.2,12.7,1.5,21c5.6,8.3,14.2,12.4,19,9.1
	c1.4-0.9,2.2-2.3,2.8-4C34.3,30.4,34,29.8,33.5,29.5L33.5,29.5z"/>
</svg>
