<?xml version="1.0" encoding="utf-8"?>
<svg version="1.1" id="Layer_1" xmlns="http://www.w3.org/2000/svg" xmlns:xlink="http://www.w3.org/1999/xlink" x="0px" y="0px"
	 viewBox="0 0 40 40" enable-background="new 0 0 40 40" xml:space="preserve">
<path d="M4,12.4c-1.1,0-2,0.8-2,1.9v16.7c0,1,1,1.9,2,1.9H6V12.4H4L4,12.4z M24.4,28.8c0.2,0.6,0.4,1.2,0.7,1.7l-1.6,2l1.6,1.5
	l2.1-1.5c0.5,0.3,1.1,0.6,1.8,0.7l0.5,2.5h2.1l0.4-2.5c0.6-0.2,1.2-0.4,1.8-0.7l2.1,1.5l1.6-1.5l-1.4-1.9c0.3-0.5,0.6-1.1,0.7-1.7
	l2.5-0.5v-2.1l-2.5-0.4c-0.2-0.6-0.4-1.2-0.7-1.7l1.5-2L36,20.7l-2.1,1.5c-0.5-0.3-1.1-0.6-1.8-0.7l-0.4-2.5h-2.1l-0.5,2.4
	c-0.6,0.2-1.2,0.4-1.8,0.7l-2.1-1.5l-1.6,1.5l1.6,2.1c-0.3,0.5-0.6,1.1-0.7,1.7l-2.6,0.4v2.1L24.4,28.8L24.4,28.8z M27.5,27.3
	L27.5,27.3c0-1.7,1.4-2.9,3-2.9c1.7,0,3,1.4,3,2.9c0,1.7-1.4,2.9-3,2.9C28.9,30.2,27.5,29,27.5,27.3L27.5,27.3z M30.6,12.4h-1.9V17
	h4v-2.8C32.7,13.2,31.7,12.4,30.6,12.4L30.6,12.4z M9.7,12.4H25v5.8l-3.7,3.6l1.8,2.4l-3,0.5v5.1l3,0.5l-1.8,2.3H9.7V12.4L9.7,12.4z
	 M24.3,10.7H22V9.6c0-1.3-1.1-2.2-2.3-2.2H15c-1.3,0-2.3,1-2.3,2.2v1.1h-2.3V9.6C10.3,7.1,12.4,5,15,5h4.7c2.6,0,4.7,2,4.7,4.6
	C24.3,9.6,24.3,10.7,24.3,10.7z"/>
</svg>
