<?xml version="1.0" encoding="utf-8"?>
<svg version="1.1" id="Layer_1" xmlns="http://www.w3.org/2000/svg" xmlns:xlink="http://www.w3.org/1999/xlink" x="0px" y="0px"
	 viewBox="0 0 40 40" enable-background="new 0 0 40 40" xml:space="preserve">
<g>
	<path d="M15.4,9.9c1.3-1.5,4.2-1.8,5.8-0.4c1.6,1.4,1.8,3.3,1,5h2.1c1.2-1.2,2.4-2.3,3.7-3.4l1.5,1.3c-0.9,0.7-1.8,1.4-2.6,2.1h2.5
		c0.9-0.7,1.7-1.4,2.6-2L29.2,10c0.7-0.5,1.3-1,2-1.5c-1.4-1.2-2.8-2.4-4.2-3.6c-1.4-1.2-2.8-2.4-4.2-3.6c-3.1,2.2-6,4.6-8.4,7.4
		c-1.5,1.7-2.8,3.6-4,5.6h4.3C14.1,13,14.1,11.4,15.4,9.9z"/>
	<path d="M23.4,27.4v-5.1c0-0.4,0.4-0.8,0.8-0.8h8.5v-4c0-0.8-0.7-1.5-1.5-1.5H8.3c-0.8,0-1.5,0.7-1.5,1.5v14.6
		c0,0.8,0.7,1.5,1.5,1.5h22.8c0.8,0,1.5-0.7,1.5-1.5v-3.9h-8.5C23.7,28.2,23.4,27.9,23.4,27.4z"/>
	<path d="M33.2,23.1h-7.8c-0.2,0-0.3,0.1-0.3,0.3v3c0,0.2,0.1,0.3,0.3,0.3h7.8c0.2,0,0.3-0.1,0.3-0.3v-3
		C33.5,23.2,33.3,23.1,33.2,23.1z M26.9,26c-0.6,0-1.1-0.5-1.1-1.1s0.5-1.1,1.1-1.1s1.1,0.5,1.1,1.1S27.5,26,26.9,26z"/>
</g>
</svg>
