<?xml version="1.0" encoding="utf-8"?>
<!-- Generator: Adobe Illustrator 20.1.0, SVG Export Plug-In . SVG Version: 6.00 Build 0)  -->
<!DOCTYPE svg PUBLIC "-//W3C//DTD SVG 1.1//EN" "http://www.w3.org/Graphics/SVG/1.1/DTD/svg11.dtd">
<svg version="1.1" id="Laag_1" xmlns="http://www.w3.org/2000/svg" xmlns:xlink="http://www.w3.org/1999/xlink" x="0px" y="0px"
	 width="61px" height="61px" viewBox="0 0 61 61" style="enable-background:new 0 0 61 61;" xml:space="preserve">
<style type="text/css">
	.st0{opacity:0.75;}
</style>
<g class="st0">
	<rect x="14" y="30" width="12" height="1"/>
</g>
<path class="st0" d="M61,30h-5C55.7,16.3,44.7,5.3,31,5V0h-1v5C16.3,5.3,5.3,16.3,5,30H0v1h5c0.3,13.7,11.3,24.7,25,25v5h1v-5
	c13.7-0.3,24.7-11.3,25-25h5V30z M30.5,54C17.5,54,7,43.5,7,30.5S17.5,7,30.5,7S54,17.5,54,30.5S43.5,54,30.5,54z"/>
<g class="st0">
	<rect x="30" y="14" width="1" height="12"/>
</g>
<g class="st0">
	<rect x="35" y="30" width="12" height="1"/>
</g>
<g class="st0">
	<rect x="30" y="35" width="1" height="12"/>
</g>
</svg>
